<svg width="512" height="512" viewBox="0 0 512 512" fill="none" xmlns="http://www.w3.org/2000/svg">
  <rect width="512" height="512" rx="120" fill="#111315"/>
  <rect x="36" y="36" width="440" height="440" rx="108" fill="url(#paint0_radial)"/>
  <path d="M256 122C212.662 122 177.539 129.68 146.366 145.96C132.634 153.131 124 167.351 124 182.843V335.83C124 354.127 143.218 365.976 159.541 357.778C189.261 342.855 220.695 335.5 256 335.5C291.305 335.5 322.739 342.855 352.459 357.778C368.782 365.976 388 354.127 388 335.83V182.843C388 167.351 379.366 153.131 365.634 145.96C334.461 129.68 299.338 122 256 122Z" fill="#E2B714"/>
  <path d="M256 154V305.5C224.537 305.5 196.838 311.788 169 323.808V188.832C194.516 176.586 222.815 170.163 256 170.163V154Z" fill="#17191C"/>
  <path d="M256 154V305.5C287.463 305.5 315.162 311.788 343 323.808V188.832C317.484 176.586 289.185 170.163 256 170.163V154Z" fill="#17191C"/>
  <path d="M256 154V334.407" stroke="#F5E7A4" stroke-width="18" stroke-linecap="round"/>
  <rect x="247" y="198" width="18" height="74" rx="9" fill="#F5E7A4"/>
  <path d="M182 227.5H226" stroke="#7F878F" stroke-width="14" stroke-linecap="round" opacity="0.9"/>
  <path d="M182 261.5H214" stroke="#7F878F" stroke-width="14" stroke-linecap="round" opacity="0.78"/>
  <path d="M286 227.5H330" stroke="#7F878F" stroke-width="14" stroke-linecap="round" opacity="0.9"/>
  <path d="M298 261.5H330" stroke="#7F878F" stroke-width="14" stroke-linecap="round" opacity="0.78"/>
  <defs>
    <radialGradient id="paint0_radial" cx="0" cy="0" r="1" gradientUnits="userSpaceOnUse" gradientTransform="translate(160 120) rotate(49.8658) scale(432.057)">
      <stop stop-color="#1C2125"/>
      <stop offset="1" stop-color="#111315"/>
    </radialGradient>
  </defs>
</svg>
